<?xml version="1.0" encoding="utf-8"?>
<!-- Generator: Adobe Illustrator 21.1.0, SVG Export Plug-In . SVG Version: 6.00 Build 0)  -->
<svg version="1.1" id="Capa_1" xmlns="http://www.w3.org/2000/svg" xmlns:xlink="http://www.w3.org/1999/xlink" x="0px" y="0px"
	 viewBox="0 0 450 328.7" style="enable-background:new 0 0 450 328.7;" xml:space="preserve">
<style type="text/css">
	.st0{fill:#B4B8C3;}
</style>
<g>
	<path class="st0" d="M449.8,181.3c-0.1-0.6-0.3-1.2-0.6-1.8c-0.2-0.6-0.5-1.1-0.9-1.6c-0.3-0.5-0.7-1-1.1-1.4s-0.9-0.8-1.4-1.1
		s-1-0.6-1.6-0.9s-1.1-0.4-1.8-0.6s-1.3-0.2-1.9-0.2h-28.1V5H75v131.2H0v187.5h255.2v-50.6H375v22.5c0,0.6,0.1,1.3,0.2,1.9
		s0.3,1.2,0.5,1.8s0.5,1.1,0.9,1.6s0.7,1,1.1,1.4s0.9,0.8,1.4,1.1s1,0.6,1.6,0.9s1.1,0.4,1.8,0.6s1.2,0.2,1.9,0.2h56.2
		c0.6,0,1.3-0.1,1.9-0.2s1.2-0.3,1.8-0.6s1.1-0.5,1.6-0.9s1-0.7,1.4-1.1s0.8-0.9,1.1-1.4s0.6-1,0.9-1.6s0.4-1.2,0.6-1.8
		c0.1-0.6,0.2-1.2,0.2-1.9V183.2C450,182.5,449.9,181.9,449.8,181.3z M225,316.9H9.9V143.6H75h18.8H225 M232.2,230
		c0-4.1,3.4-7.5,7.5-7.5s7.5,3.4,7.5,7.5s-3.4,7.5-7.5,7.5S232.2,234.2,232.2,230z M375,257.6H255.2v-3.8V136.3h-16.9h-3.8h-63h-3.8
		H97.5H85.8V13l315.4-1.3v162.1l-11.2,0.1h-5.6c-0.6,0-1.3,0.1-1.9,0.2s-1.2,0.3-1.8,0.6s-1.1,0.5-1.6,0.9s-1,0.7-1.4,1.1
		c-0.4,0.4-0.8,0.9-1.1,1.4c-0.3,0.5-0.6,1-0.9,1.6c-0.2,0.6-0.4,1.1-0.5,1.8s-0.2,1.2-0.2,1.9V254v-5.2V257.6z M444.4,296.7h-7.6
		H388h-7.2v-29.2v-18.8v-3.8l-0.4-61.6h9.1h3.8h18.8H444L444.4,296.7z"/>
</g>
<path class="st0" d="M101.8,245.9v-56.1l44.5,28.1L101.8,245.9z M106.4,198.1v39.4l31.2-19.7L106.4,198.1z"/>
<g>
	<rect x="31.7" y="290.2" class="st0" width="172.2" height="3.4"/>
	<circle class="st0" cx="48.8" cy="291.9" r="8.1"/>
</g>
<path class="st0" d="M228.7,172V66.7l83.5,52.7L228.7,172z M237.4,82.3v74l58.6-37L237.4,82.3z"/>
<g>
	<rect x="255.2" y="233.9" class="st0" width="101.4" height="4.4"/>
</g>
<g>
	<rect x="387.8" y="275.7" class="st0" width="48.7" height="1.3"/>
	<circle class="st0" cx="394.5" cy="276.4" r="3.2"/>
</g>
<path class="st0" d="M401.2,251.6v-31l24.6,15.5L401.2,251.6z M403.7,225.2V247l17.3-10.9L403.7,225.2z"/>
</svg>
