<?xml version="1.0" encoding="utf-8"?>
<!-- Generator: Adobe Illustrator 21.1.0, SVG Export Plug-In . SVG Version: 6.00 Build 0)  -->
<svg version="1.1" id="Layer_1" xmlns="http://www.w3.org/2000/svg" xmlns:xlink="http://www.w3.org/1999/xlink" x="0px" y="0px"
	 viewBox="0 0 186 134.8" style="enable-background:new 0 0 186 134.8;" xml:space="preserve">
<style type="text/css">
	.st0{fill:#B4B8C3;}
</style>
<title>megaphone (1)</title>
<path id="Shoutbox" class="st0" d="M112.8,59.5c0-1.4-0.9-2.7-2.3-3.2V45.7l-20,7c-0.2-0.1-0.4-0.2-0.7-0.2H77.7
	c-0.7,0-1.3,0.6-1.3,1.3l0,0v2.5c-2.2,0.4-3.6,2.6-3.2,4.8c0.3,1.6,1.6,2.9,3.2,3.2v1.7c0,0.7,0.6,1.3,1.3,1.3l0,0h3.3v9.1
	c0,1.8,1.4,3.2,3.2,3.2h0h0.3c1.8,0,3.2-1.4,3.2-3.2v0v-9.1h2c0.3,0,0.5-0.1,0.8-0.3l19.9,7V62.7C111.9,62.2,112.8,60.9,112.8,59.5z
	 M86.7,76.3c0,1.1-0.9,2-2,2h-0.3c-1.1,0-2-0.9-2-2v-9h4.3V76.3z M74.4,60.2c0-1.2,0.8-2.4,2-2.7v5.5C75.2,62.6,74.4,61.5,74.4,60.2
	z M77.7,65.9v-1.6l0,0v-8.1l0,0v-2.4c0,0,0-0.1,0.1-0.1h12V66L77.7,65.9C77.7,66,77.7,65.9,77.7,65.9L77.7,65.9z M91.2,65.8V53.8
	l0,0l18.2-6.3v8.7l0,0v6.8l0,0v9.3L91.2,65.8z M110.6,61.3v-3.7c1,0.6,1.3,2,0.7,3C111.1,60.9,110.9,61.2,110.6,61.3z"/>
<path class="st0" d="M186,128.1v4.5c0,1.2-1,2.2-2.2,2.2H2.2c-1.2,0-2.2-1-2.2-2.2v-4.5h76.4c0.4,1.3,1.6,2.2,2.9,2.2h27.4
	c1.4,0,2.5-0.9,2.9-2.2H186z"/>
<path class="st0" d="M183.6,119.1H2.4c-1.3,0-2.4-1.1-2.4-2.4V2.4C0,1.1,1.1,0,2.4,0h181.2c1.3,0,2.4,1.1,2.4,2.4v114.3
	C186,118,184.9,119.1,183.6,119.1z M4.8,114.3h176.3V4.8H4.8V114.3z"/>
<path class="st0" d="M151.7,102.3H28.9V13.5h122.8V102.3z M30.5,100.7h119.6V15.1H30.5V100.7z"/>
<rect x="29.7" y="22.7" class="st0" width="121.2" height="1.6"/>
<circle class="st0" cx="36.4" cy="19" r="1.7"/>
<circle class="st0" cx="42.2" cy="19" r="1.7"/>
<circle class="st0" cx="47.5" cy="19" r="1.7"/>
<path class="st0" d="M93,93.9c-17.3,0-31.3-14-31.3-31.3s14-31.3,31.3-31.3s31.3,14,31.3,31.3l0,0C124.3,79.9,110.3,93.9,93,93.9z
	 M93,34.5c-15.5,0-28.1,12.6-28.1,28.1S77.5,90.7,93,90.7s28.1-12.6,28.1-28.1c0,0,0,0,0,0C121.1,47.1,108.5,34.5,93,34.5L93,34.5z"
	/>
<rect x="63.3" y="61" transform="matrix(0.7381 -0.6747 0.6747 0.7381 -17.8906 79.1525)" class="st0" width="59.4" height="3.2"/>
</svg>
